<svg id="Layer_1" data-name="Layer 1" xmlns="http://www.w3.org/2000/svg" viewBox="0 0 940 157.51"><defs><style>.cls-1{fill:#fff;}</style></defs><title>text-logo2</title><path class="cls-1" d="M184.44,160.47c-11.81,1.47-13.94,3.93-18.53,17.38-4.26,12.63-16.56,51.5-26.9,85h-9.18c-8.37-23.61-17.71-47.88-27.06-72.48C94.24,215.08,86,239,78.33,262.8H68.82c-6.56-23.12-17.06-57.07-26.24-86.1C38.48,164.24,36,161.45,26,160.47V154.4H75.54v6.07c-12.3,1.15-12.62,3.61-10.33,12.13,5.41,18.86,11.15,38.05,16.57,55.93,8.36-23.13,16.23-47.89,23.78-73.31h8.69c9,25.09,18.37,49.53,27.39,73.47,6.07-17.71,13.94-45.1,16.23-54.45,2.3-9.67.66-12.62-13.45-13.77V154.4h40Z" transform="translate(-26.02 -138)"/><path class="cls-1" d="M237.63,244.93c-10,14.76-23.13,18-30,18-22,0-34.44-16.24-34.44-35.75a43.09,43.09,0,0,1,12.3-29.52c7.38-7.38,16.57-11.48,25.59-11.48A26.9,26.9,0,0,1,238.12,213c0,2.79-.17,5.57-2.13,6.07-3.12.82-26.24,2-42.15,2.62.65,17.38,10.33,26.24,22.14,26.24,6.39,0,12.79-2.3,18.69-7.38Zm-29.85-52c-6.56,0-12.14,7.71-13.12,20.66l19.84-.49c2.3-.16,3.28-.49,3.28-3.28C218,201.63,214.17,192.94,207.78,192.94Z" transform="translate(-26.02 -138)"/><path class="cls-1" d="M244.87,184.58c10.83-3.94,14.43-9.19,14.43-13.94,0-6.24-5.9-8.2-12.62-9.68-1-.33-2.79-2-2.79-5.74,0-4.43,3.44-9.51,11.15-9.51,8.2,0,16.89,6.39,16.89,18.86,0,14.76-12.13,22.79-24.6,26.07Z" transform="translate(-26.02 -138)"/><path class="cls-1" d="M311.8,261H268.5v-5.58c8.69-1,9.51-1.8,9.51-11.64V207.86c0-8.2-.65-9-8.36-10.66v-5.08a158.56,158.56,0,0,0,29.52-6.23V203.6c7.38-11.32,13.29-17.38,20-17.38,6.07,0,10.66,4.1,10.66,9.84A16,16,0,0,1,321.47,210a4.52,4.52,0,0,1-5.08-.82c-2.79-2.3-4.92-4.92-7.71-4.92-2.46,0-6.56,2.13-9.51,8.36v31.16c0,9.84,1.15,10.33,12.63,11.64Z" transform="translate(-26.02 -138)"/><path class="cls-1" d="M395.18,244.93c-10,14.76-23.13,18-30,18-22,0-34.44-16.24-34.44-35.75A43.14,43.14,0,0,1,343,197.7c7.38-7.38,16.57-11.48,25.59-11.48A26.9,26.9,0,0,1,395.67,213c0,2.79-.17,5.57-2.13,6.07-3.12.82-26.24,2-42.15,2.62.65,17.38,10.33,26.24,22.14,26.24,6.39,0,12.79-2.3,18.69-7.38Zm-29.85-52c-6.56,0-12.14,7.71-13.12,20.66l19.84-.49c2.3-.16,3.28-.49,3.28-3.28C375.5,201.63,371.72,192.94,365.33,192.94Z" transform="translate(-26.02 -138)"/><path class="cls-1" d="M461,261h-9.61V138H461Z" transform="translate(-26.02 -138)"/><path class="cls-1" d="M516.32,262.6a37.6,37.6,0,0,1-20-5.44A37.06,37.06,0,0,1,482.44,242a47.29,47.29,0,0,1-5-21.82v-3.44a51,51,0,0,1,4.84-22.5,38.52,38.52,0,0,1,13.5-15.74,33.24,33.24,0,0,1,18.73-5.73q15.78,0,25,10.77T548.83,213v5.37H487v1.84q0,14.73,8.45,24.55a26.88,26.88,0,0,0,21.26,9.8,31.19,31.19,0,0,0,13.57-2.8,30.14,30.14,0,0,0,10.69-9l6,4.57Q536.42,262.6,516.32,262.6Zm-1.77-81.68a23.92,23.92,0,0,0-18.21,7.93q-7.41,7.93-9,21.3h52v-1q-.4-12.5-7.13-20.34T514.55,180.92Z" transform="translate(-26.02 -138)"/><path class="cls-1" d="M617.77,261q-1.44-4.08-1.84-12.09A33.47,33.47,0,0,1,603.07,259a39.4,39.4,0,0,1-16.53,3.56q-12.49,0-20.22-7A22.68,22.68,0,0,1,558.59,238q0-12.66,10.53-20t29.35-7.37h17.38v-9.85q0-9.28-5.73-14.61t-16.7-5.33q-10,0-16.57,5.13t-6.57,12.33l-9.61-.08q0-10.33,9.61-17.9t23.62-7.57q14.51,0,22.87,7.25t8.61,20.22v41q0,12.57,2.64,18.82v1Zm-30.11-6.89a32.11,32.11,0,0,0,17.17-4.64,27.35,27.35,0,0,0,11-12.41V218H598.71q-14.34.17-22.42,5.24t-8.09,14a15.49,15.49,0,0,0,5.4,12.09Q579,254.11,587.66,254.11Z" transform="translate(-26.02 -138)"/><path class="cls-1" d="M686,182.52a36.14,36.14,0,0,0-6.49-.56,23.36,23.36,0,0,0-15.17,5q-6.21,5-8.85,14.53V261H646V174.36h9.37l.16,13.77q7.61-15.37,24.42-15.38a15.66,15.66,0,0,1,6.33,1.05Z" transform="translate(-26.02 -138)"/><path class="cls-1" d="M706.89,174.36l.32,14.81A34.45,34.45,0,0,1,719.38,177a31.69,31.69,0,0,1,16.1-4.21q13.93,0,20.74,7.85t6.89,23.54V261h-9.53V204.06q-.09-11.61-4.93-17.29t-15.49-5.69a24.26,24.26,0,0,0-15.74,5.57,32.63,32.63,0,0,0-10.13,15V261h-9.53V174.36Z" transform="translate(-26.02 -138)"/><path class="cls-1" d="M781.91,149.33a6.42,6.42,0,0,1,1.76-4.57,6.29,6.29,0,0,1,4.81-1.87,6.4,6.4,0,0,1,4.84,1.87,6.33,6.33,0,0,1,1.8,4.57,6.21,6.21,0,0,1-1.8,4.54,6.49,6.49,0,0,1-4.84,1.83,6.38,6.38,0,0,1-4.81-1.83A6.3,6.3,0,0,1,781.91,149.33ZM793.2,261h-9.61V174.36h9.61Z" transform="translate(-26.02 -138)"/><path class="cls-1" d="M823.39,174.36l.32,14.81A34.29,34.29,0,0,1,835.88,177,31.65,31.65,0,0,1,852,172.75q13.93,0,20.74,7.85t6.89,23.54V261h-9.53V204.06q-.08-11.61-4.92-17.29t-15.5-5.69a24.23,24.23,0,0,0-15.73,5.57,32.55,32.55,0,0,0-10.13,15V261h-9.53V174.36Z" transform="translate(-26.02 -138)"/><path class="cls-1" d="M896.19,216.88q0-20.34,9-32.23t24.46-11.9q17.7,0,26.91,14.1l.48-12.49h9v84.88q0,16.74-9.37,26.5t-25.39,9.77a38.47,38.47,0,0,1-17.25-4,33.56,33.56,0,0,1-12.94-10.77l5.37-5.77q10.17,12.49,24.18,12.5,12,0,18.74-7.09t7-19.66V249.79q-9.21,12.81-26.83,12.81a28.87,28.87,0,0,1-24.18-12q-9.14-12-9.13-32.43Zm9.69,1.68q0,16.58,6.64,26.15t18.74,9.56q17.7,0,25.07-15.85V198.14a27.44,27.44,0,0,0-9.69-12.69,26.14,26.14,0,0,0-15.22-4.37q-12.09,0-18.82,9.49T905.88,218.56Z" transform="translate(-26.02 -138)"/></svg>